/* XPM */
static char *_a00cfe1958c4d25e3d890e5bd6771e5IIcrARZUXNWZNi0T[] = {
/* columns rows colors chars-per-pixel */
"64 64 227 2 ",
"   c None",
".  c #1A110B",
"X  c #291B0F",
"o  c #26170B",
"O  c #271912",
"+  c #331F16",
"@  c #361F0C",
"#  c #362517",
"$  c #3A271B",
"%  c #3D281C",
"&  c #352319",
"*  c #362A19",
"=  c #362B25",
"-  c #3E322A",
";  c #3D3532",
":  c #43270F",
">  c #4B2C13",
",  c #422C1C",
"<  c #4B2D15",
"1  c #4F3114",
"2  c #44311D",
"3  c #4C341E",
"4  c #543415",
"5  c #593616",
"6  c #53361B",
"7  c #5C3A1B",
"8  c #643E18",
"9  c #443324",
"0  c #4A3421",
"q  c #4D3924",
"w  c #48372A",
"e  c #543D24",
"r  c #5A3E22",
"t  c #543C2B",
"y  c #5B3F2A",
"u  c #523623",
"i  c #443B35",
"p  c #402B22",
"a  c #613921",
"s  c #65411C",
"d  c #6A441A",
"f  c #6A4418",
"g  c #74491D",
"h  c #774A1D",
"j  c #7F521F",
"k  c #5D422B",
"l  c #574129",
"z  c #4D4138",
"x  c #56493D",
"c  c #584636",
"v  c #61422A",
"b  c #6B4B2D",
"n  c #664627",
"m  c #734E2D",
"M  c #7A4D23",
"N  c #7E5428",
"B  c #654B33",
"V  c #6E4D31",
"C  c #624C3B",
"Z  c #714D32",
"A  c #6F5136",
"S  c #705133",
"D  c #7B5634",
"F  c #73553A",
"G  c #7E593B",
"H  c #7A573A",
"J  c #4E4D4B",
"K  c #4A4645",
"L  c #514F4C",
"P  c #564B45",
"I  c #5B534C",
"U  c #575048",
"Y  c #545353",
"T  c #5B5B5B",
"R  c #5C5755",
"E  c #645245",
"W  c #62544B",
"Q  c #63584F",
"!  c #6A584A",
"~  c #725A41",
"^  c #7A5E46",
"/  c #655C54",
"(  c #6D5D53",
")  c #625D5A",
"_  c #6B5D5A",
"`  c #615752",
"'  c #6D564A",
"]  c #78614A",
"[  c #62625F",
"{  c #6C615B",
"}  c #6E6156",
"|  c #726559",
" . c #7A695C",
".. c #776758",
"X. c #645E60",
"o. c #666463",
"O. c #6A6464",
"+. c #6C6A66",
"@. c #6D6B6B",
"#. c #686768",
"$. c #736C65",
"%. c #7B6E65",
"&. c #726E6C",
"*. c #706665",
"=. c #7D7266",
"-. c #74716D",
";. c #7C746B",
":. c #7F786E",
">. c #726F70",
",. c #757373",
"<. c #7A7673",
"1. c #7D7974",
"2. c #7E7D7C",
"3. c #6F7170",
"4. c #89541E",
"5. c #835524",
"6. c #8D5A25",
"7. c #84592B",
"8. c #8C5A2A",
"9. c #81542C",
"0. c #925C25",
"q. c #9A5F25",
"w. c #925D29",
"e. c #845C36",
"r. c #8A5D34",
"t. c #825A3A",
"y. c #895E39",
"u. c #805331",
"i. c #945F31",
"p. c #9C6226",
"a. c #9B642C",
"s. c #98652D",
"d. c #8D643C",
"f. c #896137",
"g. c #946535",
"h. c #9A6635",
"j. c #976836",
"k. c #9A6935",
"l. c #93663B",
"z. c #98673B",
"x. c #96683B",
"c. c #9A693A",
"v. c #A46A2C",
"b. c #AC6D2B",
"n. c #A2652A",
"m. c #AE722E",
"M. c #B3732E",
"N. c #B9762F",
"B. c #B9792E",
"V. c #B7782E",
"C. c #A46C33",
"Z. c #A26E3B",
"A. c #AA6B32",
"S. c #AC7233",
"D. c #AC753C",
"F. c #A77134",
"G. c #B37532",
"H. c #B97731",
"J. c #BB7932",
"K. c #B37A3B",
"L. c #B77935",
"P. c #B16E2B",
"I. c #C37E2F",
"U. c #C37D31",
"Y. c #886443",
"T. c #916840",
"R. c #826551",
"E. c #857564",
"W. c #817569",
"Q. c #847A6D",
"!. c #897A6B",
"~. c #837C74",
"^. c #897F74",
"/. c #817E7B",
"(. c #887E78",
"). c #7F807E",
"_. c #C68130",
"`. c #8D8274",
"'. c #84827D",
"]. c #8B847C",
"[. c #8C887D",
"{. c #868176",
"}. c #938679",
"|. c #94897D",
" X c #9A8D7E",
".X c #918676",
"XX c #9C907E",
"oX c #817F80",
"OX c #838282",
"+X c #8A8683",
"@X c #8D8986",
"#X c #8D8A89",
"$X c #938D86",
"%X c #9B8E83",
"&X c #938E89",
"*X c #998F89",
"=X c #908681",
"-X c #979187",
";X c #9B9185",
":X c #96918A",
">X c #9B928A",
",X c #9F998D",
"<X c #9A9792",
"1X c #A39585",
"2X c #A1968C",
"3X c #A4998D",
"4X c #AB9C8D",
"5X c #A99A86",
"6X c #A59B92",
"7X c #AD9E91",
"8X c #AA9E91",
"9X c #A29D9A",
"0X c #B19F8B",
"qX c #B2A28E",
"wX c #AEA193",
"eX c #A9A298",
"rX c #B3A594",
"tX c #B9A695",
"yX c #B6A995",
"uX c #BAAA97",
"iX c #BCAD9A",
"pX c #B4A89A",
"aX c #B4A993",
"sX c #AFAAA3",
"dX c #C1AE9C",
"fX c #C2B29C",
"gX c #C4B5A2",
/* pixels */
"                                                          >X/ / R R Y L &.                                                      ",
"                                                  +.<.#.=.dXyXrXeX,X>X$X#XT R                                                   ",
"                                            '.~.+X:X#XOX1.uXwX8X,X-X$X@X#XY E.gX4X'.                                            ",
"                                        =X|.3X3X,X$X#XOX:.rXaX4X3X-X$X@X#XY 5XuX4X3X$X'.<.                                      ",
"                                      [.0XtX8X3X-X$X@X+X<.4XrX8X3X*X&X+XOX;.iXrX8X,X$X@XOXOX                                    ",
"                                      [ 0XuXrX3X2X>X$X@X-. XiX3X3X>X&X+X/.}.uX8X5X-X$X@X#XY @.                                  ",
"                                    ,.'.Q.tXtX8X3X>X$X$X1.~.yXwX2X>X$X$X<.XXyX4X2X-X@X#X#.J ).2.                                ",
"                                  '.:X#X2.Q.rXrX4X>X>X$X+X{.yX4X2X*X$X$X-.4XrX3X,X-X@X+XT OX#X@X'.                              ",
"                                [.3X>X$X$X2.~.rX4X2X,X&X@X{.uXwX8X,X>X#X[.uX4X3X>X:X+X+.{.#X$X>X2X&X                            ",
"                              eXrX7X3X>X$X@X2.(.rX3X,X>X#X} E.E.%. .| { { 4XwX3X-X@X&.1.#X$X>X6X7XrX8X                          ",
"                              Q tXuXwX3X,X$X$X1.].rX,XE.x 3 6 f 4 % 6 s s 9 | [.:X,.1.@X-X>X3XwXuXyX&.                          ",
"                            -.+.O.1XuXwX3X;X&X&X$. .B f 4 q l g 5 , k s f # 3 l I #.&X:X>X3X4XuX1X;.<.<.                        ",
"                          <X+X$X+X,.`.4XrX3X3X<.= 3 7 h 5 q l g 8 2 e s s # e 7 f w :.,X,XaX4X{.,.+X@X+X9X                      ",
"                          +X>X$X@X#X).;.[.pX%X7 o e k g 5 q 7 d 5 2 n 5.6.3 D N n.# z .XpXXX:.).#X#X$X:X=X                      ",
"                        sX2X3X>X>X-X$X#X2.$.b f X e 7 h 5 3 r 6.j b l.S.N.k x.c._.5 m ~ ;.1.+X&X&X>X,X3X3XeX                    ",
"                        eXtX7X8X3X>X>X&X:Xx 8 s X e r g 4 l y.H.p.b l.m.M.k T.c._.4 S f.W &X&X:X2X3X8XwXiX;X                    ",
"                        @X5XtXuXrX8X3X3X].l s 5 X r r h M t.x.H.q.V l.S.M.y f.c.U.4 A z.f.].2X6XwXrXrXqX X].                    ",
"                        @.-.1.].1X4X7XpX( 6 s < O e n M.w.G g.H.q.V l.S.M.y y.c.I.4 S g.v...,X;X[.~.(.1.<.,.                    ",
"                        +X@X+X{./.1.'.:.z r d < . n g.U.0.G g.H.q.b l.A.M.u t.c.I.4 S l.N.f.,./.{.'.#X+X$X@X                    ",
"                      <X-X-X$X$X-X@X#X1.q r d 1 O f.z.U.0.G g.H.q.Z l.S.N., t.c.I.4 S g.M.F.[.&X$X-X-X-X>X>X@X                  ",
"                      ,X3X3X3X>X2X>X2X(.q 7 d s $ l.h.J.w.H g.N.q.b l.S.P.t T.c.I.4 V g.M.v.].6X6X8X7X7X7X7X[.                  ",
"                      |.fXiXuXtXpXrXpX;.2 l f 4.p T.h.U.w.G g.N.q.m l.S.M.v l.z._.4 A l.M.p.W.5X1X1X5X4X4XtX[.                  ",
"                        | Q.Q.^.}.|.;Xx , t v j., y.h.U.w.t.g.G.q.Z l.S.M.y l.c.I.4 V l.m.n.=.1X%X%X1X%X X|                     ",
"                        `.4X5X5X0X4XqX| 2 w x I p r.h.U.8./ ^ H.q.Z l.S.M.k l.j.I.6 V x.v.K.rXiXiXiXuXuXdX|.                    ",
"                        rXtXrXtXtXrXiX%Xw r f.W w H h.N.w.E Q G.q.V l.S.G.y l.h.I.4 A g.C.D.3X8X4X4X8X8XrX].                    ",
"                        2X8X4X8X3X8X7X}.i K *.$.X.O.%. ._ _ { R...( f.m.G.y d.g.B.4 S x.a.D.-X>X2X>X2X2X3X^.                    ",
"                        =X2X>X2X2X*X6X(.i K ) O.) ) { _ ' _ _ ( } E t.m.G.v y.g.N.4 V c.v.c.@X-X$X$X$X#X&X1.                    ",
"                        =X&X&X$X&X&X*X1.9 Z y.E = t.l.H.8.' ( G.0.m z.A.M.v H E j.4 v z.v.x.+X@X#X#X#X#X$X,.                    ",
"                        +X#X#X#X#X#X&X,.0 ] R.Y = z.h.U.8.` ( H.p.Z l.S.H.E U K c c C z.C.u.R ,.@.+.+.O.o.T                     ",
"                        o.@.@.@.@.#.+.L 9 ~ Y.r., y.i.U.w.F b U.p.b l.S.S.B x i y k C z.A.8 | rX0X0X4X4X4X|.                    ",
"                        ;.^.!.!.!.W.W.P 0 r.G.P., T.h.U.w.y m H.q.V d.G.9.t D Z.4.0 x g.S.a |.iXtXtXyXyXuXrX                    ",
"                        wXdXiXiXiXdXgX%X, y.S.b., y.h.U.w.t l.U.q.V l.G.v 9 H Z.r.# z l.G.s (.wX6X4X4X4X4X8X                    ",
"                        5X8X8X8X3XwXwX}., t.G.n., Y.h.U.M y x.H.p.V l.S.m ; { %.[ = t T.L.M <.6X2X,X>X2X,X-X                    ",
"                        &X2X,X2X,X>X6X1.$ f.G.a.% l.g.U.6.G x.V.q.V d.S.V.$ x ^ f.. t T.G.5.,.:X$X-X$X$X:X$X                    ",
"                        @X&X$X&X$X-X>X<., f.S.w.$ l.j.B.0.t.g.N.q.V x.S.H.X t.Z._.@ t z.G.p.3.&X@X+X+X#X#X+X                    ",
"                        +X$X@X#X#X#X$X<.q y.G.8.+ l.h.J.0.t.l.N.q.b l.S.G.% d.k._.< k x.G.p.K 2.,.,.,.,.,.@.                    ",
"                        O.,.>.>.&.-.,.J 0 y.G.w.+ d.g.U.0.t.g.N.q.V l.S.H.y l.h._.1 V g.M.v.$.%X[.`.`.`.!.(.                    ",
"                        W. X|.}.`.`.[.U 0 ^  .F & T.g.J.0.^ d.H.q.V l.b.M.y l.h.U.4 V l.m.L.rXiXiXiXiXiXfX;X                    ",
"                        rXdXiXiXiXiXfXXX9 F ^ I 9 y.h.U.6.I ( H.p.Z l.S.b.v T.g.U.4 S l.m.K.3X8XwXwX8X8XrX[.                    ",
"                        6X7X7X7X8X8XwX|.w ~ Y.( i Y.Y.D.e.' ! D.i.Z l.S.v.v d.h.U.4 Z g.M.K.>X>X3X>X>X3X3X^.                    ",
"                        -X2X2X>X>X,X2X(.K X.O.>.*.o.&.#.X.O._ _ @.{ t.S.h.y l.c.I.4 n l.M.K.[.-X&X-X-X@X:X~.                    ",
"                        $X&X$X$X$X$X:X~.; x ' ` K ' ~ Y.~ W Q T.H C f.S.i.k d.j.I.4 v l.S.S.+X#X@X@X@X#X:X-.                    ",
"                        OX#X@X#X$X@X$X<.% e.c.E = g.j.I.0.E _ G.p.m l.S.8.y l.j.I.> t T.S.h.o.>.3.3.@.,.3.).                    ",
"                        #.<.,.,.>.>.>.Y 2 ( { E % T.w.I.8.' Y.H.q.V g.K.M 0 T.h.U.> y T.C.N P / Q I I I L <X                    ",
"                        Q.;X X X|.|.|.I q F c.v., y.8.J.6.t.y.L.q.Z l.G.w.q l.z._.> k x.S.m tXfXfXiXfXfXfX-X                    ",
"                        tXiXiXiXiXiXfX;X2 f.N.m., t.y.I.0.G D J.q.V l.C.P.y y.j.I.4 V g.m.Z.3X7XwXwX7XqXrX}.                    ",
"                        2X4X4X4X7X4XwX}.0 N S.m., t.y.I.0.Z m J.q.Z g.g.n.v H g.I.4 Z l.m.K.>X6X3X3X3X3X8X].                    ",
"                        *X3X,X,X1X2X3X`.9 m S.b.% V r.H.s.v b U.q.V z.9.n.v y 9.I.4 V g.v.G.$X>X,X-X-X-X>X~.                    ",
"                        $X&X&X*X:X&X>X~.% b L.M.& q c.b.M t.y a.n.Z T.N n.b e m I.6 S l.a.K.OX$X=X$X$X@X$X<.                    ",
"                        OX$X+X#X#X#X:X-.+ 2 w.0.. & 9.5.& b m 3 g a u.r 5.u 2 r 0.: y y 5.w./.@X#XOX+X+X+X<.                    ",
"                        ) @.&.&.@.@.3.$.-.=.;.W.W.W.W.W.=.;.W.;.W.W.W.W.W.%.;.;.W.W.W.W.W.W.&.-.-.&.&.&.-.@.                    ",
"                        ) ;.&.;.;.:.1.&XeX6X8X6X6X6X6X6X6X8X6X8X6X6X6X6X6X6X6X8X6X8X6X6X6X6X>X$X*X*X*X>X>X&.                    ",
"                        -.<X:X:X:X:X&X@X$X@X@X@X+X$X@X@X@X&X@X@X@X#X$X@X@X@X$X@X@X@X@X$X$X@X$X$X&X$X@X@X:X+.                    ",
"                        J o.[ [ [ [ o.[ [ [ [ o.o.X.[ [ [ [ [ [ [ ) [ o.[ [ [ [ ) o.[ o.[ [ [ [ ) o.[ o.#.J                     ",
"                    ~..X|.}.[.}.}.}.}.}.}.}.}.}.}.}.}.}.}.]..X}.}.}.}.}.}.}.}.}.}.}.}.].|..X}.}.}.}.}.}.[.|..X^.                ",
"                  1.6X8X8X7X8X8X8X8X8X8X8XwX8X8X8X8X8X8XwX8XwX8X8X8X8X8X8X8X8X8X8XwX8X4X8X8X8X8X8X8X8X8X8X4X8XeX                ",
"                  [ >X:X*X>X*X*X:X:X:X*X>X$X>X*X&X*X-X>X:X&X:X:X:X-X>X*X-X-X>X:X&X:X:X:X-X-X*X$X-X$X:X>X:X-X:X:X                ",
"                  [ +X+X@X+X+X@X#X+X@X@X@X@X+X@X@X$X+X+X@X#X+X#X@X@X+X@X@X+X@X@X#X#X#X+X$X+X$X+X@X@X@X@X@X+X#X+X                ",
"                  T OX+XOXOXOXOXOXOXOXOXOXOXOXOXOXOXOXOXOXOXOXOXOXOXOXOXOXOXoXOXOXOXOXOXOXOXOXOXOXOXOXOXOXOXOXOX                ",
"                  T /.oXoXOX/.OXoXoXoX).oXoXOX/.OX/.oXOXoXoXoX).'.oXoXoXoXoXOX/.oXoXoX)./.oXoXOXoX/.oXoXOX/.).OX                ",
"                  T ).oXoXOXOXoXOXOXoXoXoXoXOXOXoXoXoXoXOXOXoXoXOXOX).OXOXOXoXoXOXOXoXoXOXOX).OXOXOXoXoXOXoXoXOX                ",
"                  T OX#X+XOX+XOXOX#XOX#XOX#XOX+XOX#X+XOXOX#XOX#XOXOXOX#XOX+X+XOXOX#XOX#XOXOXOX#XOX+X+XOX+XOXOXOX                ",
"                    Y T T T T T T T T T T T T T T T T T T T T T T T T T T T T T T T T T T T T T T T T T T T T T                 ",
"                                                                                                                                "
};
