/* XPM */
static char *_46be795a75b4d05b752c2d1749e1c16wIxNwkIJ7CJ5xFlS[] = {
/* columns rows colors chars-per-pixel */
"64 64 143 2 ",
"   c #3D5617",
".  c #395E15",
"X  c #345B1A",
"o  c #3D5D19",
"O  c #3D6216",
"+  c #3E641C",
"@  c #3D6A1A",
"#  c #3F5C25",
"$  c #425C15",
"%  c #425E1C",
"&  c #426216",
"*  c #4A6716",
"=  c #43641B",
"-  c #4A661D",
";  c #456A1D",
":  c #4A6B1E",
">  c #516E1D",
",  c #47731D",
"<  c #4C711D",
"1  c #4B7A1F",
"2  c #50721D",
"3  c #455E24",
"4  c #495E24",
"5  c #456521",
"6  c #4A6622",
"7  c #466B22",
"8  c #4B6D23",
"9  c #4F672A",
"0  c #476B29",
"q  c #4D6D29",
"w  c #526E25",
"e  c #596F27",
"r  c #526E2A",
"t  c #586F29",
"y  c #467223",
"u  c #4D7224",
"i  c #4D7B25",
"p  c #457428",
"a  c #4D732A",
"s  c #4E7A2B",
"d  c #527325",
"f  c #597426",
"g  c #537A26",
"h  c #597B26",
"j  c #54752A",
"k  c #59762B",
"l  c #557A2B",
"z  c #5A7C2D",
"x  c #567730",
"c  c #5C7732",
"v  c #567D31",
"b  c #5C7D31",
"n  c #5E7F38",
"m  c #617E2D",
"M  c #627732",
"N  c #627D32",
"B  c #4F812B",
"V  c #558227",
"C  c #5A8226",
"Z  c #55812C",
"A  c #5C822D",
"S  c #5E882D",
"D  c #568332",
"F  c #5D8332",
"G  c #538931",
"H  c #5E8934",
"J  c #5E8538",
"K  c #5F8A39",
"L  c #5F9036",
"P  c #62832D",
"I  c #6B862C",
"U  c #64892C",
"Y  c #628434",
"T  c #698536",
"R  c #638A35",
"E  c #6B8E31",
"W  c #698D33",
"Q  c #6A8B35",
"!  c #6A8D35",
"~  c #6B8D37",
"^  c #6D8D37",
"/  c #628238",
"(  c #638539",
")  c #69863A",
"_  c #608939",
"`  c #658A3A",
"'  c #638C38",
"]  c #668D39",
"[  c #678D3C",
"{  c #6B8B3A",
"}  c #6B8C3B",
"|  c #6C883C",
" . c #6E8D3D",
".. c #718D36",
"X. c #718E3B",
"o. c #659137",
"O. c #649236",
"+. c #629535",
"@. c #6B9336",
"#. c #62913A",
"$. c #66913B",
"%. c #6A913A",
"&. c #69923A",
"*. c #6A9538",
"=. c #6D953B",
"-. c #6E913C",
";. c #6B963C",
":. c #6A953F",
">. c #6E9939",
",. c #6F9C3B",
"<. c #6E993D",
"1. c #6E9A3D",
"2. c #749037",
"3. c #72933D",
"4. c #7A943F",
"5. c #769E3E",
"6. c #668542",
"7. c #658C41",
"8. c #658E41",
"9. c #6C8E41",
"0. c #708F43",
"q. c #6F9240",
"w. c #6D9442",
"e. c #6B9A40",
"r. c #699842",
"t. c #6E9A42",
"y. c #739542",
"u. c #719444",
"i. c #719745",
"p. c #7C9442",
"a. c #7E9642",
"s. c #7C9246",
"d. c #759A44",
"f. c #739E44",
"g. c #779C44",
"h. c #7A9842",
"j. c #799D44",
"k. c #7B954B",
"l. c #7B9D4A",
"z. c #75A147",
"x. c #7EA044",
"c. c #7CA54B",
"v. c #83A647",
/* pixels */
"=.Y F ] h Y T l Y U *.U E c.V , d b F G Z 8 = z A g g ; a j A F H Z 8 j _ D y Z Z 2 @.v.T i g 5.>.V ' F h w m Y Y A ' l P ' S Y ",
"A A b h T Q Y b D A c.1.P h B Z A l Z V K a 5 Y @.U i D l Y D l D 8 u D F F Y @.:.l Y T d F P m A H l R T Y T d Y ] Z y F | Y A ",
"R z Y l b b z Y 8 w z #.z.Z s @ a l h U V [ 8 < A @.j j F j l b u l F H %.;.z.v.5.j.E d { ) F Y b D R } h h ^ Y R z g Y ] -.O.$.",
";.Z %.F u d Y A z R h H H g F l b F g A A l s l i i a y F x 8 h z Z l R O.V +.5.P ..h.* z Y b { j j -.F u A z A A A ! p.^ 1 V >.",
"A G d A l l F i d k a y 5 ; d P A v s s ] l g l g Z l z z j b m l H ( F A h e.z.h < | ( ; < i.i.7 N R C 1._ Y l S F { T l H F A ",
"b D A { l a l l Y z j 8 l a = A h ; u s F { H 7 l J u x A a F N b [ l H R R $.D Y C l [ F u D %._ F C T Y R ^ R ` ! Y 2  .) m Y ",
"j r } A a l ` A g F h u A l z h l a y < g d F x u 8 a b l s d h d F %.H F l.t.j b u I O.] ( d l F S R 3.R A { d.A P 3.: z Y N { ",
": N Y V #.A F F l g H H Y z A F [ v v l j l 0 7 a 8 l F F A A N Y ] } g F ] i A } T ^ P _ Y , d ` R 1.1.m f } ] z z ) ( : : t.q.",
"` F C E R R g s Y k J D 8 b l d 5 : a ( J a O j b u x j b { l l N h z F d l s F F Y P Y S ^ 3.R v R Z R m z %.z P T l | A a A $.",
"v g E 3.z l Y S b | s O = J H s = o u @.F l u u R Y v b j l w l a : l F l d J r.Z s F ( F P A A l R $.z N -.[ h A V U :.] R s l ",
"$.! @...z k ! R g 2 g t.K : Y z u p l F h j K l b j q 8 8 0 a F b 7 l l l ] _ g g ` ) R R O.R F Y D P P Y ] P z R -...z $.! * = ",
"y.%.d Y Y g Y R >.S U x.V , f b v G l ; : l D k d 0 q 8 A l f l j f a b : F Y h Y ^ P l g R *.Z } Y d d Y Y T Y %.z.T ( _ 3.4.4.",
"K d T T T b D z c.1.m g i s z l g A l a 8 l z k 7 Z D D F d z h : N R 0 r f z s z b k F v z Y H S Y { Y X.d P m z ` N d A O.T ( ",
"( z b z z R 8 w z R 1.F F a 8 l R P F J y h A H u 6 F 3.z h N / k { S 7 q d ( | h 8 ( k A b l F R Y h m Y z Y P Y ( j z %.z 8 u ",
"} F a z R P m Y h R ] l m Y d d g g Z %.F F S y ; 6 8 X.T > - q j T k = a l ( 3.Y u l l h Y b l O.T z A Y A z R A A -.F P z Y h ",
": u l b l d N ( l u 8 8 Y Y 8 j k d z @.1.z : y l 7 0 b x = 7 j : z M R g l z 2 h k f k b ) F b R F t.F H H A Q Y A R l z Y z h ",
"h Y v s u j ( v v j l k h z k F F F Y ] e.F F z j 6 l a 5 u D z l H z R A k l f u - k ` i.Y Y b A Y P ` P Y Y l R F s #.u.Y Z l ",
"` Y d b N b z F l j F F z z l z $.v l H O.g F Y l v d u z 3.[ j z %.Q N { R z l k k , } d.R F h h N f Y m T ^ Y R H h P } S l l ",
"j z l Y z z A H g l D R F J l m Y { w.Z O.} ` F F F q a E ..z l = Y ) j D S R i h ) i s z k u h ( b F k Y Y A ! $.%.A Y T S l a ",
"l w s D ( Y R F A u z b A R R z d { y.F ' R ) g b z ( l u u l b k D l ; x b ( R Q ^ F u u a j z k k Y g h A R R ` -.1.^ $.] a j ",
"b s l l l z H S ! @.A s F A F m D l d A F f l ) 6 d z z ; u F z z l j A l l z h k d l b _ 7.Y : l Q T _ F z 3.=.Y Y y.] h F Y l ",
"j J i.Z 7 F Q Y A A z l R 3.D Y ^ w.] l j k u 7.a k R z w d Z F F a - z F A Y k j h z F k z T 8 w m h { ! h { Q Y F A h l g Y A ",
"Y _ S i ' %.{ ' O.' F Y A F m A Y Y l z F Q A l u s K : 8 D Z _ b u d / v d u T -.D f u k ) Y u k l h P Q  .} ( Y F H R $.' F } ",
"g F h T 3.R i V 5.1.Z ` A l d z Y F A F A R #.l S F Z s s l A z l j [ R a k F F D l F z z h h k v v F l P p.y.R h ' H l A -.t.z ",
"m ] l D A k H R P A H g R T Y T d Y } g < v F A } h z t.L P R k u 8 8 l j / / l j z H Y F z z Y v S F l D z m %.l H Z y F H H z ",
"1.-.Y z f Y F b m b D H } k h | Y R A g F b D l a f 8 S R | y.{ k 0 8 r b _ < a z A Y H A Z _ A j F y.K l : k l S R A g [ w.Z Y ",
"R P m T d k z z Y j q } A u z z z z z Y | P F g l x v k ) R b N ` l c r k -.l z R Y P S l a a g j Y ] A k d A F A R P } A F A F ",
"Y z d Z j 8 k ` [ d b Y g w.R A Z z F D z F Y / l l q.b d 8 8 = ) Y ; a s m Y b H -.-.Y l j u r b 7.= - T Y z H Z H Z ' A h h Y ",
"d F d l j ) z : F F D R P A ` { R Y F z h b k c D h z R l j ) b d z P F l : z y.{ R h b ( z x x l $.d j F $.^ @.R D v g | T Y } ",
"j k j u F ` 8 = a v Z F T Y z Y 3.d k ( & - b l h h j j J Y Q z.j q ( ] D ) [ z l d r 6 ) Y : a l P T x v %.I m | ) l z ) f T } ",
"6 w l s D y j b : u y v _ h 6 F z u l l j 6 6 l z F J z l < ;.q.R v = y l A R R l x ) b d z A F z 8 l u.Y z k f Y k w m l k z ` ",
"j j h 6 a x d k 6 = t w 8 y 7 5 : l j ; 7 j 7 8 k k l z Y ` D 8 l A A R ` l k l Y z Y j.j j ( ` A _ ` k l g k N z h b d F } z m ",
"( k b l 7 7 5 a j 5 k 8 j 0 q v l z a 7 6 s j 6 q b Y z H A H j b F h Y N 6.Y z z u R u.( b ; y l D Y ( l A { F j ( ( d u z N s.",
"x d N b j y x s 5 0 s l j 6 7 a a b j 7 l j d b w d } } l A Y | N ( T h k x h P R _ G u D A A R { l h z A 6 b Y Y R g Y b z m Y ",
"l k 8 j j 7 5 j l s 5 a 8 5 a x 7 0 5 a l l 6 c ) j h ) A A A z N w ..Y 6 z ) Y F A F l h b h Y b 6.A U R l 8 F F z F ( z w w k ",
"( ( l a 5 u q q x b x a 7 5 j 5 % j = 8 b x q t Y z b F d Y A l F l z 3.d d  .{ V S Y } N ) T f r x f W *.b z z l k v l w F l u ",
"j N b x l { a 8 l A k j u j d 6 8 5 = 5 u j z c Y ) d j b k N l J V d T 3.h b Y A Y A z N w ..E 6 b { T S A z F R b j u d F ( u ",
"b l d Y N b d h A H F l z F d j 8 = 6 q 6 7 l j z N x F z : b F l Y M T 3.R N F d m z l F j z 3.d 7 h.y.R O.{ } d j ( ) w l n k ",
"d d b m > 6 w F j b Y f b g i u 5 8 8 8 5 j f - 8 u b v h k 8 l N s.k.Y ^ { k j b k Y l F s d | 3.z b | R A ^ b 6 6 b v x 8 8 k ",
"6 d k 6 M w h | q b l = r 0 j a r b v j j u u r k l j z z l l z m Y F f | u.F J z 8 b Y l ( N N 3.^ T Y l l z F b z j v a 8 k b ",
"z j d d b ) | k k s b z : f z j 8 j j a z a 7 k k 8 k l z F k u k k b z d h N F z f y z N s.s.T ..0.j u F f 7 ( A f ( j 6 j z { ",
"z 7 r z 8 l j 8 l a = M | F b j 8 : d b | j 8 b v l j 8 J v f F l a ` { b f b R F z l z T _ ( k { y.b D u : a s _ v F l j j d : ",
"j ; u b z l j 6 j u 6 F ) 7 d b v 8 u l l k r u 8 ( z q u s F R x a k | z w z A l ( z w f k b b w f Y b j h g u k 8 8 u j ( k a ",
"j t u F F k y k b 8 k b 8 % = u x l 8 u u N k u l z k l l z Y z x F j b w z a 5 D l j ( k y | ` b d Y Y Y F y R H H B J ] F l k ",
"g ) b l z j d k b b k k c r j u s 8 l j s k d l ; d F b b l ( 5 8 j u 0 j F F 8 l u j ( J u z | z d P h g ` ] ' ` Z g l F l l , ",
"F ! ( l u j j 8 q l 8 6 a l l u 5 8 8 v a ; l l u z q X 5 w = x q 6 l h j l k w 6 b w ( 9.j k z u z k 8 z @.f.z : z R g j j z b ",
"k 2 l l k z N v a 5 6 8 a x b l a j 8 x 5 0 v : q b a +   4 o l v b b d z h - N R 5 5 6 8 w w z z z j z Y R 5.T U _ T A z g b z ",
"w l l b k 6 c v b l R u d l l k l l z l 8 8 u + 5 8 7 8 9 9 8 o F d.z l b ( k | S + 3 o j ( ; : N 8 F l g F O.g R i.A Y F F T k ",
"9.l ; a j b k k Y Y b j k z F F k z A l l 5 = 6 a 8 7 l r o   5 = h...> - q t Y h = 6 8 ) u.z d l j l Y Y Z ( ] y.$.Y 3.i.d k { ",
"F J a 8 b k d / m : 8 w Y j F Y t b g g y = 6 q 8 5 u d $ 5 7 8 8 v n + 8 j ; z M ` i u z 2 k j j c k Y R A H Q -.l A ` b 6 ; b ",
"b v j j k d z w 6 N w z  .r b l = d q q a j b b j j u 8 = r D y x y + + j m h H z R l k k j 8 = d } y.F Y z b N l _ z l N b b d ",
"k 5 k f b k z 8 f N | 0.k k l F b : d z l 8 j d l F j 5 j f 8 l j u d [ K k h $.} P { 3.z l d k y %.d.R ( h k k s Y k 8 Y A d ( ",
"j j l 6 5 F 7 d z d l l 8 l u = M X.R F d 8 8 u j 7.d 6 b b b x - F ..I l a + ( | f Y l A 1 g ( l i z k : k N z D j : u s ( v D ",
"u x ) z a l d 7 z d k j 8 z d : ( ) 6 u v b 8 a k z k d j 5 _ N r b n 5 v b 8 K l = j s b Y E X.F u u d k z k j F d d j u k 6 7 ",
"J ! h l j d b j z h k : z Y f k N q   = a x l 8 u : ( k 7 v a h ) k a x x N g s b b : j Y k h d l z _ 7.D : k ! Y F D < H J H V ",
"s D j 8 = d { l.R } A w M z | b j v r d u j 7 j a 7 k d l @ l ] F 8 d + x b i 7 & M ^ ] Y t j l z F l z Q : 8 P d z 1.&.' _ S i ",
"l l s k j : } d.F A z m r a z k 8 j l l k ; ; u v s ; l H l } 8 q Y < a 0 v b 6 : { { 8 z 0.w.b 8 8 l | Y 6 x x d A >.z.z 2 h R ",
"F _ Z h F j s z f - w N j x 8 = 8 s x s l s b f l 0 a J i b 8 o # P d.7 5 z | k ( K j 8 a N D v Y b k z m l F F F Y R t.R T O.T ",
"Y h F F Y F 8 8 u a k k a l r 8 8 l l 5 s a R 3.v @ s s 7 k j F 0 u R J 8 j F ( b j N N z z F s l Y Y z A l z { l l F %.g R t.R ",
"d.q.z z F d l F [ b : k T z F k i l g a a y z < J v 8 7 8 l a l ( 0 s l F 0 l R T l z k z z ` k g F R F H z m Y &.$.D $.%.d.*.O.",
"} y.z f A l H l h Y 8 d A z A R F F ` F v l l l 5 % q % l Y : 7 u d d d _ s A Y y a l R Y R F z y A F A R R h u q.u.F $.%.-.Z R ",
"D R R F h A b A F z l j F l d Y S l 5 : d J F a . d k = u a a a 8 Y h j l A D l u D l l P H A E 1.A a Y A D N b z h z Y m l H f ",
"u S H S R -.z l Y A z } x + ; v ' g + . y %.Y j y u J Y Y b : l Y F F A A E A u J z.Z y F ( Y A A A l _ q.S F } w.] h k m i r.k ",
"y A K S ! | h k R R g < Z t.H 8 Y D y p i R A d 7.D l b j ; k ` ] Z h < A C l ` ] A i $.} 3.%.+.R F F A F Y F R Y V D Y T #.F z "
};
