/* XPM */
static char *f6d9329b48914efc97664bd4eae36d9ch2z1iv4MQ77LyToz[] = {
/* columns rows colors chars-per-pixel */
"64 64 213 2 ",
"   c None",
".  c #010101",
"X  c #0B0202",
"o  c #080708",
"O  c #040A09",
"+  c #090B0B",
"@  c #060907",
"#  c #130001",
"$  c #1B0001",
"%  c #120B0A",
"&  c #19080A",
"*  c #0F1408",
"=  c #1D1A0F",
"-  c #141E06",
";  c #0C1311",
":  c #141211",
">  c #1C1212",
",  c #18191A",
"<  c #080B10",
"1  c #240002",
"2  c #2B0001",
"3  c #25090D",
"4  c #340003",
"5  c #33060C",
"6  c #38030C",
"7  c #3A0106",
"8  c #2A1C09",
"9  c #370B10",
"0  c #251B17",
"q  c #361416",
"w  c #3B151A",
"e  c #3E1C1F",
"r  c #1B2A05",
"t  c #253809",
"y  c #252615",
"u  c #2D231A",
"i  c #36250E",
"p  c #2D2C2E",
"a  c #262726",
"s  c #352021",
"d  c #3A2022",
"f  c #3A2B29",
"g  c #393B3A",
"h  c #2E2E2E",
"j  c #4C0005",
"k  c #44030C",
"l  c #4B010D",
"z  c #420106",
"x  c #53020C",
"c  c #5B020D",
"v  c #500005",
"b  c #4E0411",
"n  c #530411",
"m  c #5B0512",
"M  c #580B13",
"N  c #54121B",
"B  c #4D141C",
"V  c #65020E",
"C  c #680008",
"Z  c #630513",
"A  c #6B0514",
"S  c #750716",
"D  c #7A0716",
"F  c #7D0817",
"G  c #750A16",
"H  c #70020E",
"J  c #44341F",
"K  c #73271E",
"L  c #551C22",
"P  c #432023",
"I  c #492D2C",
"U  c #473627",
"Y  c #593D25",
"T  c #4B3837",
"R  c #543836",
"E  c #502B2F",
"W  c #682E33",
"Q  c #78383D",
"!  c #673639",
"~  c #334619",
"^  c #2E4112",
"/  c #3E4B2B",
"(  c #415E18",
")  c #51751E",
"_  c #4A6A1C",
"`  c #475B29",
"'  c #445925",
"]  c #534A37",
"[  c #634929",
"{  c #735B34",
"}  c #735B3E",
"|  c #665639",
" . c #537720",
".. c #577B23",
"X. c #597D26",
"o. c #536C30",
"O. c #7A6137",
"+. c #617D37",
"@. c #617D38",
"#. c #3B4543",
"$. c #484949",
"%. c #554A49",
"&. c #4C5353",
"*. c #535454",
"=. c #595A59",
"-. c #555F47",
";. c #664D46",
":. c #6B5049",
">. c #71554E",
",. c #615A5B",
"<. c #576247",
"1. c #5E6463",
"2. c #5F6867",
"3. c #626466",
"4. c #636A6A",
"5. c #6A6B6D",
"6. c #6A6463",
"7. c #6D6F73",
"8. c #726D6A",
"9. c #820717",
"0. c #830917",
"q. c #840718",
"w. c #8B0718",
"e. c #840919",
"r. c #8C0818",
"t. c #880817",
"y. c #950819",
"u. c #9B0819",
"i. c #9B0618",
"p. c #9B000D",
"a. c #A4081A",
"s. c #AA091B",
"d. c #A70517",
"f. c #BC0115",
"g. c #BE061A",
"h. c #B5091C",
"j. c #BD091D",
"k. c #891A26",
"l. c #C20519",
"z. c #C0091D",
"x. c #CB0A1E",
"c. c #C9061B",
"v. c #D2051C",
"b. c #C20E21",
"n. c #D80D22",
"m. c #C51629",
"M. c #C6192A",
"N. c #C71629",
"B. c #D6172C",
"V. c #E01A2F",
"C. c #CB2232",
"Z. c #CF2B3A",
"A. c #D22234",
"S. c #D1313F",
"D. c #87683C",
"F. c #853E43",
"G. c #D23342",
"H. c #D73E4C",
"J. c #D83A49",
"K. c #91464C",
"L. c #8E454B",
"P. c #B4565D",
"I. c #936E40",
"U. c #D9414E",
"Y. c #DA4351",
"T. c #DF4E5B",
"R. c #DA4955",
"E. c #CF4351",
"W. c #E04453",
"Q. c #E0535F",
"!. c #E25662",
"~. c #E45C67",
"^. c #E75D69",
"/. c #CE626B",
"(. c #D2656D",
"). c #DC6B74",
"_. c #D66770",
"`. c #E7626D",
"'. c #EA636E",
"]. c #EB6B75",
"[. c #EF6771",
"{. c #EE727C",
"}. c #E7717A",
"|. c #F3757F",
" X c #5E8428",
".X c #698C37",
"XX c #6E933A",
"oX c #6C9236",
"OX c #61872B",
"+X c #769B42",
"@X c #799E43",
"#X c #779B45",
"$X c #7DA248",
"%X c #7BA145",
"&X c #B99055",
"*X c #84AB4C",
"=X c #C99A5A",
"-X c #C79758",
";X c #D4A35F",
":X c #DCA963",
">X c #EDB56A",
",X c #E8B167",
"<X c #F8BD6F",
"1X c #F2B96D",
"2X c #F9BE70",
"3X c #FDC373",
"4X c #FFCA77",
"5X c #F57680",
"6X c #F27A83",
"7X c #FC7B85",
"8X c #F87781",
"9X c #EF7680",
"0X c #FF808A",
/* pixels */
"                          . . . . . . . . . . .                                                                                 ",
"                        -.` ` ~ ^ ~ ` ` ` ` ` ` <.5.6.3.                                                                        ",
"                      3./ oX*XoXOX.X#X#X@X@X@X*Xo.- - - h                                                                       ",
"                          @ +X$X#X+X.. .) ) ) XX$X$X$X*X` p   O @ p                                                             ",
"                            * * ' *X%X#XOX) ) ..X.X.X. X..( . I ] R .                                                           ",
"                                $.~ ~ .X%XXXXXXXXX.X..t t r . ] >.;.f =.                                                        ",
"                                  p p o.+.+.+.+.+.+.~ / g p . R :.:.:.% .                                                       ",
"                                      $.o o o o o o *       : T :.:.:.> .                                                       ",
"                                                              a u >.:.% ,                                                       ",
"                                          4.3.4.5.4.5.4.4.3.4.+ 0 >.:.% a 7.1.2.4.2.2.2.1.1.4.                                  ",
"                                        8.9 q q 3 2 2 2 2 q q P I ] :.> & q q 2 2 2 2 9 q q w                                   ",
"                                  o o X Q 7X8X7XW.l.z.l.J.7X8X7XF.@ :.+ W 7X8XA.l.z.l.`.8X8X8XP o o :                           ",
"                            O . R )././.).6X{.Z.c.d.X i.n.B.B.B.D < >.: M V.B.n.H 1 g.z.b.C.{._./.(._.s O ;                     ",
"                          %.Q F.P.7X|.7X^.H.{.T.Y.E.L.M j j k v 1 . 0 . $ v j v L K.Y.U.Y.W.{.|.|.|.8Xk.C c 1.                  ",
"                        6.L 8X7X|.|.{.`.S.z.{.{.6X8X8X! d d d d d P P P P s d s K.0X|.6X6X6X{.{.{.{.{.A.v.d..                   ",
"                      #.W 7X{.{.{.{.{.C.f.M.{.{.{.{.{.|.|.8X|.8X8X8X|.|.8X8X8X|.|.|.{.{.{.{.{.{.{.{.{.C.l.i.,                   ",
"                    . K.{.6X{.{.6X].M.z.g.M.6X{.{.{.{.{.{.{.{.{.{.{.{.6X|.{.{.{.{.{.{.{.{.|.6X{.|.`.N.n.C >                     ",
"                  %.F.).'.J.|.6X`.Z.g.z.z.b.S.`.{.{.{.{.{.{.{.{.{.{.{.U.Q.6X{.{.{.{.{.{.6X].G.`.6X'.c.C R                       ",
"                  % 7X[.G.l.Q.~.G.f.g.z.z.l.f.!.6X{.{.{.{.{.{.{.{.{.{.M.C.`.{.{.{.{.{.{.].Y.f.~.].R.y.f                         ",
"                  3 }.C.f.z.g.g.j.g.j.j.j.j.g.!.{.{.{.{.{.{.{.{.{.{.{.C.f.M.{.{.{.{.{.|.H.f.g.`.Y.p.o                           ",
"              &.b h.k.F u.z.z.z.z.z.z.j.z.z.z.b.Y.6X{.6X6X6X6X6X6X].M.j.g.M.6X6X|.}.}.0XY.f.z.N.N.d.@                           ",
"              #.4 a.D S u.z.z.z.z.z.z.z.z.z.j.g.N.U.6XY.S.G.S.G.G.Z.j.z.g.m.G.S.T.0X6XE.M.l.z.j.c.d..                           ",
"              T z D D D u.z.z.z.j.z.z.z.j.z.z.z.f.b.!.N.f.f.f.g.f.g.z.z.z.l.f.f.C.~.!.m.f.z.j.j.d.0.U                           ",
"            . c 9.D D S u.z.z.z.z.z.z.z.z.z.z.z.z.j.g.g.z.z.z.j.z.j.z.z.z.j.j.j.j.g.g.j.j.z.z.n.c y 4X8 7.                      ",
"            . c F D D S y.z.z.z.z.j.z.z.j.z.z.z.z.z.z.z.z.z.z.z.z.z.z.z.z.j.z.z.z.j.z.z.z.z.z.v.c y <X8 7.                      ",
"            . m 9.D S u.a.u.z.z.z.z.z.z.z.z.z.z.j.z.z.z.j.z.z.z.z.z.z.j.z.z.z.z.z.z.z.u.d.z.z.b.c y <X8                         ",
"            1 V F D S h.a.F z.z.z.z.z.z.z.z.z.z.z.z.j.z.z.z.j.z.z.z.z.z.z.z.z.z.z.z.z.9.u.z.z.x.c y <X[ 6.                      ",
"          X D F D D S h.a.9.z.z.z.j.j.j.z.j.z.z.j.z.z.z.z.z.z.z.j.z.z.z.z.z.z.j.z.z.z.q.u.z.z.n.C y ,X3XD.+                     ",
"          X S F D D D h.s.F j.z.a.0.D j.s.q.j.z.z.z.z.z.z.z.z.z.z.j.z.z.z.z.z.z.z.j.9.S u.j.F j.i.M 8 =X>X&Xa                   ",
"          X S D D D D r.t.9.j.c.a.S S y.q.9.j.z.z.z.j.z.z.z.z.z.z.z.z.z.j.z.z.z.z.h.D S w.y.D y.r.V . =X4X-X.                   ",
"          X S D D D D S S 9.b.h.y.G D S S 9.j.z.z.z.z.z.j.z.z.j.z.z.j.z.z.z.j.z.z.h.D D S S D S D A 3 I.:X;XU                   ",
"          X S D D D D D S e.j.w.G D D D D 9.j.z.z.j.z.z.z.z.z.z.j.j.z.z.z.z.z.j.j.h.D D D D D D D D w.. { 3X<Xi 5.              ",
"          X S D D D D D D D 9.F D D D D D 9.z.z.z.z.z.z.z.z.c.b.a.t.z.z.z.z.z.r.u.j.D D D D D D S e.j.$ { 3X>X,X>.,             ",
"          X S D D D D D D D S D D D S D D 9.y.y.s.z.z.z.z.j.y.y.t.e.z.z.z.j.u.D y.j.D S D D D D S t.n.$ O.4X>X2X-X{ + +         ",
"          X S D D D S D D D y.F D F y.F D S S S u.z.z.z.j.a.S S S 9.s.j.z.h.D S y.a.D D D D D D S 9.s.7 [ &X1X>X3X;XJ J 8.      ",
"          X D D D D D D D q.l.r.S 9.z.r.S D D S u.z.z.z.u.S D D D D S s.z.h.D D D S D D D D D D D D S t.7 = ,X>X>X>X<X3XD.. .   ",
"          . D D D D D D D D q.9.D D 9.D D D D D F 9.9.9.F D D D D D D F a.j.D D D D D D D D D D D D D D S Z = ;X4X:X= = D.=X.   ",
"            5 A F D D D D D S S D D D D D D D D D D D D D D D D D D D S t.y.D D D D D D D D D D D D D D D S l Y [ Y z S K |     ",
"            . m 9.D D D D D D S D D D D D D D D D D D D D D D D D D D D D S D D S D D D D D D w.t.D D D D F 9.5 X 1 F x.V .     ",
"            . c D D D D D D D D D D D D D D S D D D D D D D D D D D D D D D D D D D D D D D D h.u.S D D D D D F 9.F D g.A .     ",
"            . m 9.D D D D D D D D D D S u.h.D D D D D D D D D D D D D S D D D D D D D D D D S F D G D D D D D S D D D t.k .     ",
"            . c q.D D D D D D D D D F S u.b.D D D D D D D D D D D D S a.y.S D D D D D D D D D D D D D D D D D D D D D e.z .     ",
"            . B Z D D D D D D D D D D S y.d.D D D D D D D D S D D D D a.u.S D D D D D D D D D D D D D D D D D D D D D Z w .     ",
"              $.2 9.D D D D D D D D S D D S D D D D D D D D D D D D D D S D D D D D D D D D D D D D D D D D D D D D F X         ",
"              g 2 t.D D D D D D D D D D D D D D D D D D D D D D D D D D S D D D D S D D D D D D D D D D D D D D D D 9.X 5.      ",
"                ,.7 S D D D D D D D D D D D D D D D D D D D D D D D D D D D D D D D D D D D D D D D D D D D D D D A 6           ",
"                  . D F D D D D D D D D D D D D D D D D D D D D D D D D D D D D D D D D D D D D D D D D D D D D 9.V @           ",
"                  : S S D D D D D S D D D D D S D D F D D D D D D D D D D D D D D D D F D D D D D D D D D D D D D Z ,           ",
"                    X m 9.D D D A n D D D D D D D 9.j.w.S D D D D D D D D D D D D D D h.a.S D D D D D D D D D 9.k o             ",
"                    . m t.S D D S A D D D D D S D F y.F S D D D D D D D D D D D D D D y.w.S D D D D D D D D D t.7 .             ",
"                    *.L V D D D D D D D D D D D D D S D D D D D D S D D D D D D S D D S S D F D D D D D D D F c E *.            ",
"                      #.2 F D D D D D D D D D D D D D D D D D D D D D D D D D D D D D D D D S D D D D D D D D X                 ",
"                          $ G D D D D D D D D F D D D D D D D D D D D D D D D D D D D D D S n S D D D D D A &                   ",
"                          . D D D D D D A Z D Z A F D D D D D D D D D D D D D D D D D D D S n A D D D D t.V .                   ",
"                          %.n S F D D D A Z D m Z F D D S D D D D D D D D D D A S D D D S A b A D D D 9.Z B =.                  ",
"                            . l F D D D D F S m Z D D D D D D D D D D D D D F m m F D F Z b n S D D D D 4 @                     ",
"                              T 4 q.D D D D m b Z D b S F F F D D D D D D D D m Z D D D A m D D D D 9.$ ,.                      ",
"                                %.2 9.9.S m n b Z D b S S m m D A Z D F A Z D m m m Z Z m n Z Z S S 2                           ",
"                                  $.m n x n n n Z A b S A b b A Z n D S m n A m b n n b b n n 6 k N =.                          ",
"                                    . . $ n b b b b b A A b n b n m S m b n b n b n n n b l b X . ,                             ",
"                                          X X k m m b n n n n b b n n n b n n b n n n m 6 . %                                   ",
"                                              & # $ n m n n n m m n m n m n n m m l # # 0                                       ",
"                                                *.*.9 6 6 6 6 6 6 6 6 6 6 6 6 6 6 w *.*.                                        ",
"                                                    < . . . . . . . . . . . . . . a                                             "
};
