/* XPM */
static char *c021c47eff9946e6a82fb73981970d56BBsgSd2ygAqVEHOP[] = {
/* columns rows colors chars-per-pixel */
"64 64 2 1 ",
"  c None",
". c black",
/* pixels */
"                                                                ",
"                                                                ",
"                                                                ",
"                            ........                            ",
"                          ............                          ",
"                         ....      ....                         ",
"                        ...          ...                        ",
"                       ...            ...                       ",
"                      ...              ...                      ",
"                      ..                ..                      ",
"                     ...    ..      .   ...                     ",
"                     ..    ...     ...   ..                     ",
"                     ..     ..      ..   ..                     ",
"                     ..                  ..                     ",
"                     ..                  ..                     ",
"                     ..                  ..                     ",
"                     ..                  ..                     ",
"                     ..                  ..                     ",
"                     ...                ...                     ",
"                      ..                ..                      ",
"                      ...              ...                      ",
"                       ...            ...                       ",
"                        ...          ...                        ",
"                         ....      ....                         ",
"                          ............                          ",
"               ....         ........                            ",
"               ......         ....                              ",
"               ........       ....                              ",
"                .........     ....        ...                   ",
"                  .........   ....     .......                  ",
"                    ..............   ........                   ",
"                      ......................                    ",
"                        ..................                      ",
"                          ..............                        ",
"                            ..........                          ",
"                             ......                             ",
"                             .....                              ",
"                             ....                               ",
"                             ....                               ",
"                             ....                               ",
"                             ....                               ",
"                             ....                               ",
"                             ....                               ",
"                             ....                               ",
"                             ....                               ",
"                            .....                               ",
"                           ......                               ",
"                          ........                              ",
"                         ..........                             ",
"                        ............                            ",
"                      .......  ......                           ",
"                     .......    ......                          ",
"                    ......       ......                         ",
"                   ......          ......                       ",
"                  ......            ......                      ",
"                  .....              ......                     ",
"                   ...                ......                    ",
"                                       .....                    ",
"                                        ....                    ",
"                                         ...                    ",
"                                                                ",
"                                                                ",
"                                                                ",
"                                                                "
};
