/* XPM */
static char *_4d4c19750fa4ab3b21115a9b41d759cD8YyulnHFCt08nU0[] = {
/* columns rows colors chars-per-pixel */
"64 64 142 2 ",
"   c #562D17",
".  c #5C2B15",
"X  c #5E3312",
"o  c #5E3817",
"O  c #5D351B",
"+  c #5B3E1A",
"@  c #672E16",
"#  c #623416",
"$  c #613B16",
"%  c #683A16",
"&  c #64351B",
"*  c #6B351B",
"=  c #653A1C",
"-  c #6A3C1E",
";  c #713D1D",
":  c #5E3624",
">  c #5D3C24",
",  c #6B3622",
"<  c #663C22",
"1  c #6C3D22",
"2  c #673F2A",
"3  c #6F3C29",
"4  c #723E23",
"5  c #7A3D24",
"6  c #743E28",
"7  c #65411C",
"8  c #6D421D",
"9  c #73431D",
"0  c #7A491F",
"q  c #5D4025",
"w  c #654222",
"e  c #6D4224",
"r  c #6E4926",
"t  c #6D4329",
"y  c #6D492A",
"u  c #734425",
"i  c #794526",
"p  c #744A25",
"a  c #7B4B26",
"s  c #74452A",
"d  c #7A462B",
"f  c #754A2B",
"g  c #7B4B2C",
"h  c #7D5127",
"j  c #75512C",
"k  c #7D522D",
"l  c #7F5C2F",
"z  c #774531",
"x  c #7B4532",
"c  c #774C31",
"v  c #7D4C31",
"b  c #7E5232",
"n  c #7E5832",
"m  c #7F5538",
"M  c #814A26",
"N  c #83462C",
"B  c #824D2D",
"V  c #884B2B",
"C  c #845227",
"Z  c #82522E",
"A  c #8B522E",
"S  c #83592D",
"D  c #804734",
"F  c #824E32",
"G  c #8A4E34",
"H  c #844E38",
"J  c #904E37",
"K  c #845333",
"L  c #8A5535",
"P  c #855A34",
"I  c #8B5A35",
"U  c #855439",
"Y  c #8B553A",
"T  c #88543C",
"R  c #8C563C",
"E  c #865A39",
"W  c #875C39",
"Q  c #8B5838",
"!  c #8D5B39",
"~  c #8E5A3A",
"^  c #895E39",
"/  c #8A5F38",
"(  c #8C5C38",
")  c #8A5B3D",
"_  c #8D583D",
"`  c #8D5E3C",
"'  c #905634",
"]  c #925C36",
"[  c #92563C",
"{  c #915C3A",
"}  c #925E3A",
"|  c #955E38",
" . c #955E3B",
".. c #915B3C",
"X. c #995F39",
"o. c #856136",
"O. c #896231",
"+. c #8A6034",
"@. c #8B6137",
"#. c #8A6138",
"$. c #8D613D",
"%. c #926137",
"&. c #956335",
"*. c #91643A",
"=. c #92613C",
"-. c #92643C",
";. c #95653F",
":. c #9C633B",
">. c #99633D",
",. c #9E613E",
"<. c #9A643D",
"1. c #94693F",
"2. c #855D42",
"3. c #8E5D42",
"4. c #945642",
"5. c #965642",
"6. c #925747",
"7. c #925C41",
"8. c #985C42",
"9. c #995E43",
"0. c #8E6242",
"q. c #8C6441",
"w. c #956342",
"e. c #946344",
"r. c #976745",
"t. c #9A6443",
"y. c #9C6444",
"u. c #966944",
"i. c #9F6A43",
"p. c #986C42",
"a. c #9B6A44",
"s. c #9F6A44",
"d. c #95614B",
"f. c #9C6749",
"g. c #9E694A",
"h. c #9F764D",
"j. c #A06144",
"k. c #A66547",
"l. c #A16E47",
"z. c #A26C4B",
"x. c #A46D4A",
"c. c #A56F4B",
/* pixels */
" .K K Q i D K g K I  .V G x.C 9 u v P O.P 9 = a K a a e f f k S #.h e f #.I 0 k M i L 5.L a i :.:.Z / Z i 6 d K G K / g B I C G ",
"B Z b d K G G v K B c.X.N i C S K k a M @.j t g V V g P g K K b L 1 u Z W b I L ;.S L x u @.L d B / a L G D K u K / S p K Y K K ",
"I g K g v v a K e e v -.s.C k 7 p f a A a q.r ; C ] a f K u f K u k K S } w.i.k.j.j.L 4 ..U v v b P L Y 6 d T G L B u L ^ ;.I ] ",
">.h ! L r f L B a L a I #.a K a F Z i Z B g g a h a p e b b e d k k g #.I C &.:.5 J 8.@ d L F ! u u { K p B a g B B L 5.L a M X.",
"B P i g k g K i u s f e < - u B B k f h ` i h f h l g g f f g N g Q ^ b Z i <.l.a ; ) K - - w.e.3 v A B u./ K B B P ^ D d @.K N ",
"k P Z T g p g g F k f e f f = B d 8 f f K L W e k K u g K p K x d ) k I L L *.P K B g ) K p K ;.E L V L K I Y L I I G 5 R U g D ",
"f s ! Z p k L k a L a u Z g k i g y p 9 d 5 P j r e s b g p d d 4 W ;.K Z f.u.g v 4 V L -.K a k P C L [ G B L t.N N ..* d L K I ",
"- x K M -.b K P g p K I G g Z K @.b n g f f t e t e g K K b B g G ( } u Z ;.f C ..Y G B #.K ; u ^ L -.t.d 6 { ! a g U U - - e.e.",
"! L M L I I a g L s P P e v g p 8 - u P P j $ s g s g f K T g f d s g K u g l K Z K N I S G [ L b L B I x d -.k K L g ` K p K ;.",
"l i ' [ a d F S g T k $ = m I g = o p ! H f u p U b b b f f u d u 8 k K g u W u.l p m D K A B B k L w.a B ` ! i Z d V [ ! ^ p f ",
"! L L Y d s Y ] a * M s.^ 8 B b p j g K i f ^ k b s e e r t s P b e k a g #.I g i ! I L L I A K K k K B G Q F d } { G g } ] @ & ",
"8.{ 5 F L g K I :.N A j.M ; u v l P g 8 8 f g g e f y t g a s g f 1 f v , K K u G Y K g a I } Z ( K u 6 F K K G ] y.G E Y [ [ 5.",
"^ 6 D G v K K g z.:.a i h k k g s Z g y e g d u e K b K K u g a * v L t e u v h f g d K b d K ^ S Y G D T 4 F d a ` v 6 S } F T ",
"E a v v d L e 1 a ( y.K P p e f L V L P e M B W e 8 Z -.a d v K s T Z e y s K _ i 1 U f v v g P L L i g G d B G L b s d } d - p ",
"! P f k L B d G d I ^ g B K 1 u i i g } L S Z p 8 < 1 } G , & t s H i - p d H ..K u g f g K v g ! L g G K B g L F v } K v d G d ",
"% e b b g f v U g u u 1 F x 4 f f u B ] >.g - p f e y b c & e f 1 d x T h f g ; d d u d g L K v L S u.K I I B L K K Q a g L B u ",
"i Y P p s s m k k f g g f a s K P n K ! ;.K Z K u e f p e e b g a K d I B s d u e * p T w.K L F a G b L B G K d K K g } u.I B g ",
") B p b K v k K g f b K g g v g } k g I ] i g K f v u u g ..! s g -.! F Q I K g f s u $.t.E K d d D u K g G Y G I P a Z ! Z g g ",
"f g g b g s B E d g Z I G W g d x ! $.S @.` T P P W y s L G B k = D E 6 K A L a a H a h g s 1 i K v F d F K B L -.%.A F L S g y ",
"d 1 g K K G I K Z p g K Z I L d u w.w.K ! L L a b d K f 6 u g b s P f = b b K L G [ P p u u s B d s K g d B L L T -.} R Q / p g ",
"b f Z g g g L B G | B f P B K g g g i g K 6 f U 1 6 i g = u K g Z k f b g f a z s 5 u b ^ 3.K - s Y D ! E a  .} L L 8.L d F K g ",
"u E u.S p K U K S B d g I u.Z F { u.Y g u d u 0.s f I v e u l K K u & d K k K s s g B K s v K 1 6 d i ( G 5  .T K K g a a i K Z ",
"L ! B i ] -.} ( ] ! K K g K v K L K k g K G K k u f $.8 u P Z Q d u u G K u u K w.K u u d T K 1 f f d B G ! ! F D P P L } ! K { ",
"u K a L Y I a a :.>.Z I K i 6 d K K Z K k I -.a S Z k k h h b g g s q.^ p f m P Z g g v d d d d U l K i F 8.e.T i I I k Z w.t.g ",
"B ` b K v s ^ I d B O.g L D F G u K I k p b K Z I 6 a l.%.B K d f t e f f U K f p b I L B a a K b Z Z b P d d ` g I Z r P I @.d ",
"} } K g 5 K L d D K o.L Y u d ! G L B u b K Z k u s 6 Z I T 8.Q u r e 3 v ! p f v g K K K K ^ B f K w.$.k 4 u a S I B g ( 1.M K ",
"I F N K 4 s B g L f r ! B p B g g g g G U B K g k b b s H L g U E d c y f } u g I G B Z g p f f u U E g 6 6 Z F B L Z ! B K B K ",
"K a i g s e s T ( u x B a 1.( K Z g K b d v L K g g 0.g u e 1 & E G = j g B D b I } [ F f f r u v -.8 - v G B I B I C ^ B d i K ",
"u v f g u ) g - K b K A Z Z T L K L g v u F d c g u g I Z s H v u d K K k e k w.T L g v U f b f g ;.u t E ` G ' I b S a T Y F T ",
"s d f u K Q 1 = u n k K L K d K } u s K # * K f g a s f P L L g.s r U ! v Q ` d d u e 1 Q H - j f F D s b  .N N Y T g B K 6 K ! ",
"1 t f u P r u b 1 u p b Q d 1 b d p g b t , e f d K E d u 9 -.;.E b - 8 g g L W g v T g u d F K g e g e.K a d 6 v u 1 x d d g Y ",
"s 6 g 1 y k s f 1 O 3 1 t r 7 1 1 d f - e f e 1 d f g d H ^ W e k B B Q ^ a g d K g K u.g s U ^ Z Y ^ g g g u F d x v t K ! d d ",
"U f b g e r w f y < s 1 y t y b k g r e e f s < e K K F K L W f k K d L v 2.K d g u I =.E b - u g K ^ K g B } K u E W u - g D 6.",
"b 6 v K f p j f e y h j f = e j f d f r j k s v e u T T a B B ) v H F 6 d c d B L ( P p K Z B U ! g a d g - v U L I g K g d z L ",
"d f 1 t f e < f g j r t 1 w f c t r w f f g < z U s d K Z Z Z d x , Y L 3 v L G S Z P g g K i K v 2.g V I f 1 K v B L U d , u s ",
"U m f r e 8 s t b k s r e t t < O y O 1 v b t t H v v K i v g g L f d } u u ! T B B K _ v D F i t v 6 L u.b d g f f b f u m g u ",
"s F b f g ^ u e g Z f s u u e e e < & = e f d d g L t f K s v g P n u H { d g K F B B g v , R ' = v _ G K Z g K L F f e u K E u ",
"v s u H v v s f B K K g g K u g r & 1 t < e g s d H v K g , v L g G x v [ K H H i v d g K f N [ u 1 8. .I ] L 3.u s U E u f b d ",
"1 s v i * , e K f g F 4 g g p p = < r e w s u 1 e u b b f u u d x 6.6.U L _ u f v u K g I n u H 7.F v Q L K L v 1 < b m c t e s ",
"1 s d < z 4 d T t m f * s t s f y v b f f u s , s f u g k g g d x K L 4 Y ..b W v - b K d K x v [ L H K a d g K v d s j f 1 f v ",
"g d t u v U _ 6 s g b v = s g f 1 u s f g f e f 6 e s g k K u 1 u d b d u d F K d u e a x 6.d.H G T s f L u e L g u K u 1 f v U ",
"d e u d u f s 1 f p * z K L b s u 1 s g ` s 1 v b g s e W b g K g u ` Y v s g L K b g v x Q #.6 Q 7.U K e = p g Q K b k s f u - ",
"s < u b g g f e s u 1 b U 1 1 v v e r f d u t e e U d t p f S L b y d _ d 1 d g k Q g , u s v v 4 d K b f d u p f e e u g b d s ",
"s t p K K f u s v 1 c v e & < r b f 1 u u H f u b v u f f g G g f m f v 6 g u e b b f L f u ` U g u B K L b u I P #.Z P ! K d f ",
"i U b g g f u d f v d s f t f u f r g p f s u Z 8 u v b F d U w w s y y u W K t k p f ^ E p v T d 6 B d g I ! ! ! K a g K k f 9 ",
"B Q W f u s s e f f e < f g g f = 1 r m j - g k u d f + w t o f y 1 B a u g f 6 e f , U 3.u d g u g s 3 d ' l.a * a L f f f v v ",
"u 5 g k d v v y f w - e y b b f f u e c t w k 8 r v j w   : # g m b K u g a & x L w > < 1 1 1 d v d g g L ^ >.L K I L B d a g v ",
"u u d b s 1 z m b g U u u g k f g d d u e r e = = e r t < 2 < # v t.d u v K 6 T A = q O s U 1 - b e Z g p K ] i L t.Z F F L K s ",
"0.f 8 s c v d d H v v s d g L K d v B f h e = 1 t e 8 f t o   > & 8.Y - & t s F u % e 1 U 8.g f g f s K W B #.( w.} K { 7.u s 3.",
"E P t e v d e K d - < s K s b K 1 v a g p = e t t w u 4 . t r e e b K O 1 s - d x I f 6 v ; i s s d s K Q g L L } g K I K < = g ",
"m b s s d u d u , x 6 d T y b g = s t s f r d b f f u e & 3 n e g r w 7 b d d K g L g 6 s s 1 & u T t.L K B v v g ^ d f H v v u ",
"u < g s f z d 1 t v Q 3.6 d j K v = u g f t s u f v f e s 1 e k u p u L ^ s g ;.! D K ;.g v s 6 p ;.w.E K d s s p Y d t K B u H ",
"f f g 1 < b = u d u a f 1 d p & z T L K s e - u f ` s < b b b g & P T N g j $ K T , K A C i i U a a d s 1 u H d K s - p j W k K ",
"e d ` g y g f r d u d s e g u - H ) - u b v e p v d s 3 t e ` H 3 v U 1 m c 1 #.k - f f v K L } P r u p s v d 6 K u 6 s p s 1 e ",
"P Q g s s u z d g d f 1 d H u d v 2 O = t j g e r - H d p j p d H f f j b v s h b v - u v z u 4 p K E ` K - s Y B W l 9 I W P S ",
"h K f 1 # s Q g.Q } B u z v T v s c t u e g e f f 8 u u h 8 u Q K 1 u - f v a e # x Q I L 6 u g g K g d L - 6 a u g >.} I ^ C h ",
"g j k f s 8 ;.e.K v a z t f g s - k f g s - e e b f - g I g Y e s K - f y c v e 1 T 3.u g 3.u.b e e d T G - c f u M  .l.a * d Q ",
"K L Z i v g p f u & 3 x f v < & p f b f k p v u k y j P p v , o > d t.p w g Y u K Q f < u K Z P F g d v d f m P P L @.<.L L I L ",
"B g K K L K e u u s g d t b s 1 8 g g w k f I Q k 8 j h 9 f s m y e I P r e K E v s v v d d K f k K F d g g d ;.g g K ] i L i.L ",
"8.w.g d K u g U ) g - d K g L f p g g f j 9 a 5 n b r w r g r h W y f k K f j Y K f v s d b ^ f k K I Z W Z d G _ $.Z -.[ t.-.] ",
"( u.g u B g ^ g d L u u B a K L K K ^ b b g p f < O t O g E e p u f 6 4 ^ h k L u p h L G I L d 9 B K K Q E d 4 w.w.K } ] 7.C L ",
"K I L K a Z B g v g f s K g u K Z f 8 - u E P j X s v $ p u s y 1 B g f g B b k p Z g g a I B G %.K f W C K g v g i g T v a P s ",
"f K I A L [ g d K Z B U k 7 1 m @.h % o p } K g r f W K L b = d K P K B M L B u ^ h.S p K U K S B g a P t.Z K ! u.! u u d h u.f ",
"0 h @.A L Q d s L I M * a u.P 8 K Z p j j A M e u.n g v f = s I I Z a ; B M g $.( g i -.` 7.( %.] b L Z K g K L K B K P L ( L d "
};
